<?xml version="1.0" encoding="utf-8"?>
<!-- Generator: Adobe Illustrator 27.3.1, SVG Export Plug-In . SVG Version: 6.00 Build 0)  -->
<svg version="1.1" id="Layer_1" xmlns="http://www.w3.org/2000/svg" xmlns:xlink="http://www.w3.org/1999/xlink" x="0px" y="0px"
	 viewBox="0 0 864 864" style="enable-background:new 0 0 864 864;" xml:space="preserve">
<style type="text/css">
	.st0{fill:url(#SVGID_1_);}
	.st1{fill:url(#SVGID_00000078037427905345140720000017081625566206221756_);}
	.st2{fill:url(#SVGID_00000013186628947137727320000016734485082195863722_);}
	.st3{fill:url(#SVGID_00000064336548922710076600000014595176958250125448_);}
	.st4{fill:url(#SVGID_00000091005316304556022140000018017396969331641787_);}
	.st5{fill:url(#SVGID_00000102539481652725832450000015518731488529378960_);}
	.st6{fill:url(#SVGID_00000003827304997824276910000002495713246784444338_);}
	.st7{fill:url(#SVGID_00000063618806896627027960000008477431389391920014_);}
	.st8{fill:url(#SVGID_00000181065261070260388860000009304709769887241361_);}
	.st9{fill:url(#SVGID_00000051352929446068182040000005822349355539891586_);}
	.st10{fill:url(#SVGID_00000132798175170540685810000003045913103821629321_);}
	.st11{opacity:0.3;}
	.st12{fill:url(#SVGID_00000150085214847664302430000006573080933053740929_);}
	.st13{fill:url(#SVGID_00000087414660444825884060000013592051615199187121_);}
	.st14{fill:url(#SVGID_00000026864558486918246280000007807880655477552258_);}
	.st15{fill:url(#SVGID_00000067915674643043260210000015663729348915402132_);}
	.st16{fill:url(#SVGID_00000064352775840613462690000008084501233522573185_);}
	.st17{fill:#FFFFFF;}
</style>
<g>
	
		<radialGradient id="SVGID_1_" cx="681.676" cy="343.3892" r="73.386" gradientTransform="matrix(2.7746 0 0 3.2702 -1227.2915 -733.4421)" gradientUnits="userSpaceOnUse">
		<stop  offset="0" style="stop-color:#D7DF23"/>
		<stop  offset="1" style="stop-color:#006035"/>
	</radialGradient>
	<path class="st0" d="M528.04,645.51v0.05H59.89v-95.64h486.89c27.21,0,50.72-12.16,69.99-35.66c0.18-0.26,0.4-0.52,0.62-0.78
		C617.39,513.48,633,640.52,528.04,645.51z"/>
	
		<radialGradient id="SVGID_00000089565100315021655010000005569409826276397197_" cx="681.6794" cy="343.3958" r="73.3746" gradientTransform="matrix(2.7746 0 0 3.2702 -1227.2915 -733.4421)" gradientUnits="userSpaceOnUse">
		<stop  offset="0" style="stop-color:#D7DF23"/>
		<stop  offset="1" style="stop-color:#006035"/>
	</radialGradient>
	<path style="fill:url(#SVGID_00000089565100315021655010000005569409826276397197_);" d="M668.18,368.53
		c-8.23,13.3-17.98,24.67-30.03,33.2c3.92-11.37,9.11-21.82,15.91-31.14c6.85-9.39,14.96-16.91,24.5-22.89
		c0.93,5.47,0.96,10.68,0.41,15.87c-2.11,19.87-12.54,32.88-26.04,43.18c-3.5,2.67-7.33,4.76-11.01,7.12
		c-0.63,0.4-1.24,0.83-1.81,1.6c7.51-1.08,14.63,0.13,21.39,3.85c6.71,3.69,12.25,9.17,17.32,15.75
		c-14.38,5.75-44.92-0.34-49.7-10.13c11.24,0.84,22.2,1.66,33.09,2.48c-0.26-0.22-0.72-0.81-1.28-1.03
		c-8.18-3.18-16.45-5.89-25.18-5.62c-4.7,0.14-8.98,1.52-12.89,4.95c-13.06,11.44-27.22,20.7-41.87,29.01
		c-13.43,7.61-27.18,14.26-41.28,19.93c-11.7,4.71-23.53,8.95-35.72,11.56c-5.62,1.21-11.27,2.24-17.16,3.4
		c0.25,0.47,0.5,1.17,0.91,1.69c10.35,12.96,22.81,21.88,37.25,26.99c12.34,4.37,24.95,5.94,37.73,3.81
		c10.65-1.77,20.5-6.37,29.51-13.34c13.29-10.29,23.86-23.54,31.06-40.34c1.19-2.77,2.11-5.7,3.45-8.53
		c-0.21,1.32-0.28,2.7-0.64,3.96c-5.56,19.68-14.93,36.38-28.28,49.94c-7.15,7.26-14.99,13.25-23.73,17.47
		c-11.42,5.51-23.27,7.85-35.65,7.02c-9.83-0.66-19.46-2.33-28.79-6.06c-16.27-6.5-29.67-17.8-40.11-33.92
		c-1.73-2.68-3.42-5.43-4.9-8.3c-3.08-5.98-2.76-12.08,0.02-18.09c2.98-6.46,7.43-11.41,12.51-15.4
		c5.98-4.69,12.13-9.17,18.52-12.99c2.43-1.45,3.32,2.58,4.19,4.56c0.59,1.34,0.05,1.59-0.69,2.19c-3.56,2.9-7.16,5.74-10.59,8.85
		c-1.29,1.17-2.29,2.89-3.17,4.55c-1.59,2.99-0.86,5.49,1.94,6.66c1.36,0.57,2.86,0.77,4.32,0.87c7.02,0.46,13.95-0.53,20.85-1.98
		c15.78-3.33,31.13-8.59,46.21-14.87c16.09-6.7,31.75-14.63,46.98-23.71c10.62-6.33,20.92-13.27,30.62-21.4
		c12.48-10.47,23.4-22.73,31.56-38.17c0.32-0.6,0.53-1.27,0.79-1.91C668.56,368.95,668.37,368.74,668.18,368.53z"/>
	
		<radialGradient id="SVGID_00000039105251087162956500000014400035733242388901_" cx="681.6794" cy="343.3957" r="73.3747" gradientTransform="matrix(2.7746 0 0 3.2702 -1227.2915 -733.4421)" gradientUnits="userSpaceOnUse">
		<stop  offset="0" style="stop-color:#D7DF23"/>
		<stop  offset="1" style="stop-color:#006035"/>
	</radialGradient>
	<path style="fill:url(#SVGID_00000039105251087162956500000014400035733242388901_);" d="M612.96,420.04
		c11.52-17.24,15.27-37.16,15.27-58.43c-0.3-0.07-0.59-0.14-0.89-0.22c-0.48,4.91-0.77,9.86-1.51,14.71
		c-0.75,4.93-1.77,9.82-2.98,14.61c-1.22,4.82-2.81,9.51-4.64,14.17c-1.5-9.11-2.16-18.17-1.83-27.31
		c0.66-18.74,5.34-33.23,11.7-43.86c6.79,12.03,10.1,25,9.09,39.21C635.69,393.23,626.84,408.48,612.96,420.04z"/>
	
		<radialGradient id="SVGID_00000115507117714292217570000004300912166517849776_" cx="681.6796" cy="343.3958" r="73.3748" gradientTransform="matrix(2.7746 0 0 3.2702 -1227.2915 -733.4421)" gradientUnits="userSpaceOnUse">
		<stop  offset="0" style="stop-color:#D7DF23"/>
		<stop  offset="1" style="stop-color:#006035"/>
	</radialGradient>
	<path style="fill:url(#SVGID_00000115507117714292217570000004300912166517849776_);" d="M601.2,405.8
		c-2.06,0.62-4.13,1.21-6.19,1.86c-8.88,2.81-17.88,5.19-26.6,8.57c-11.8,4.57-23.39,9.9-35.07,14.9c-0.78,0.34-1.58,0.66-2.34,1.05
		c-4.76,2.5-3.69,3.04-7.13-2.69c25.26-10.56,50.93-18.73,77.16-24.41C601.09,405.32,601.14,405.56,601.2,405.8z"/>
	
		<radialGradient id="SVGID_00000023277758419300857940000013571678511768079496_" cx="681.6796" cy="343.3956" r="73.3752" gradientTransform="matrix(2.7746 0 0 3.2702 -1227.2915 -733.4421)" gradientUnits="userSpaceOnUse">
		<stop  offset="0" style="stop-color:#D7DF23"/>
		<stop  offset="1" style="stop-color:#006035"/>
	</radialGradient>
	<path style="fill:url(#SVGID_00000023277758419300857940000013571678511768079496_);" d="M626.74,459.91
		c0,0-35.65,25.96-66.89,27.96c0,0,22.24,5.47,61.29-12.67L626.74,459.91z"/>
	
		<linearGradient id="SVGID_00000129164995264189954770000009839431317058441872_" gradientUnits="userSpaceOnUse" x1="448.8009" y1="390.0479" x2="611.8332" y2="390.0479">
		<stop  offset="0" style="stop-color:#FDB913"/>
		<stop  offset="1" style="stop-color:#F58220"/>
	</linearGradient>
	<path style="fill:url(#SVGID_00000129164995264189954770000009839431317058441872_);" d="M452.32,459.61
		c-0.65-3.23-1.44-6.44-1.92-9.71c-2.27-15.44-2.27-30.84,0.94-46.11c6.59-31.4,21.97-54.99,45.98-70.52
		c16.32-10.55,33.92-14.46,52.46-12.15c19.13,2.39,36.06,10.8,50.41,25.98c3.98,4.22,7.6,8.93,11.26,13.55
		c0.51,0.64,0.4,2.13,0.32,3.21c-0.52,7.11-1.11,14.21-1.68,21.31c-10.88-20.38-25.87-35.65-45.75-43.63
		c-19.96-8.01-39.87-7.51-59.43,1.66c-19.52,9.15-34.21,24.93-44.04,46.81c-9.87,21.96-12.27,45.22-7.84,69.54
		C452.79,459.58,452.55,459.59,452.32,459.61z"/>
	
		<radialGradient id="SVGID_00000144299206332487469660000008710094370351834508_" cx="546.0423" cy="368.2979" r="54.1701" gradientTransform="matrix(2.7746 0 0 3.2702 -1227.2915 -733.4421)" gradientUnits="userSpaceOnUse">
		<stop  offset="0" style="stop-color:#FDB913"/>
		<stop  offset="1" style="stop-color:#F58220"/>
	</radialGradient>
	<path style="fill:url(#SVGID_00000144299206332487469660000008710094370351834508_);" d="M541.15,455.86
		c-6.28,1.91-12.07,3.69-17.88,5.42c-2.3,0.69-4.63,1.21-6.93,1.89c-1.3,0.39-2.17,0.13-3-1.29c-8.76-14.99-17.59-29.92-26.35-44.92
		c-0.9-1.55-1.63-2.16-3.22-1.22c-1.22,0.71-2.66,1.11-4.03,1.2c-3.26,0.22-4.83-2.37-3.3-5.68c3.8-8.19,9.74-13.2,17.45-15.18
		c2.15-0.55,3.7,1.47,3.21,4c-0.27,1.42-0.68,2.91-1.38,4.07c-0.86,1.44-0.61,2.18,0.41,3.26c14.26,15.18,28.49,30.4,42.72,45.63
		C539.56,453.79,540.16,454.64,541.15,455.86z"/>
	
		<radialGradient id="SVGID_00000174604501568931964420000018190543585627859390_" cx="482.2055" cy="369.7787" r="19.3001" gradientTransform="matrix(2.7746 0 0 3.2702 -1227.2915 -733.4421)" gradientUnits="userSpaceOnUse">
		<stop  offset="0" style="stop-color:#FDB913"/>
		<stop  offset="1" style="stop-color:#F58220"/>
	</radialGradient>
	<path style="fill:url(#SVGID_00000174604501568931964420000018190543585627859390_);" d="M160.84,480.37v47.46
		c-1.94,1.4-4.28,3.01-6.97,4.73c-2.73,1.77-5.87,3.38-9.39,4.89c-3.57,1.51-7.54,2.75-11.95,3.74c-4.37,0.99-9.26,1.46-14.6,1.46
		c-8.82,0-16.76-1.61-23.81-4.83c-7.1-3.22-13.14-7.8-18.13-13.62c-3.18-3.74-5.87-7.9-8.07-12.53c-1.32-2.65-2.47-5.46-3.44-8.42
		c-2.73-8.11-4.06-17-4.06-26.72c0-9.67,1.32-18.66,4.01-26.87c2.65-8.26,6.53-15.39,11.51-21.42c5.03-6.03,11.16-10.76,18.39-14.14
		c7.23-3.43,15.39-5.09,24.52-5.09h1.06c5.78,0.1,11.51,0.83,17.16,2.18c5.6,1.35,11.38,3.17,17.29,5.46l2.12,36.54h-1.59
		c-0.4-1.51-0.93-3.33-1.59-5.46c-0.66-2.13-1.5-4.37-2.51-6.76c-0.97-2.44-2.16-4.89-3.57-7.38c-1.41-2.55-3-4.94-4.81-7.28
		c-1.81-2.29-3.88-4.42-6.17-6.34c-2.25-1.92-4.85-3.48-7.67-4.68l-0.57-0.36c-1.63-0.47-3.18-0.78-4.67-0.99
		c-1.5-0.16-2.87-0.26-4.1-0.26c-5.65,0-10.5,1.61-14.51,4.83c-4.01,3.17-7.32,7.59-9.88,13.2c-2.56,5.61-4.45,12.27-5.64,19.91
		c-1.19,7.64-1.81,15.91-1.81,24.79c0,9.77,0.75,18.45,2.21,26.09c0.04,0.26,0.09,0.57,0.18,0.83c1.41,7.28,3.48,13.41,6.17,18.45
		c2.82,5.2,6.26,9.2,10.36,11.96c4.1,2.76,8.78,4.16,14.02,4.16c2.25-0.1,4.45-0.47,6.53-1.2c2.03-0.73,3.84-1.72,5.42-2.91
		c1.54-1.25,2.78-2.65,3.7-4.26c0.88-1.66,1.37-3.43,1.37-5.35l0.04-27.34l-6.35-7.12l-7.06-7.9v-1.45H160.84z"/>
	
		<radialGradient id="SVGID_00000127743082794100568740000001178070187235124920_" cx="546.0446" cy="368.3" r="54.1724" gradientTransform="matrix(2.7746 0 0 3.2702 -1227.2915 -733.4421)" gradientUnits="userSpaceOnUse">
		<stop  offset="0" style="stop-color:#FDB913"/>
		<stop  offset="1" style="stop-color:#F58220"/>
	</radialGradient>
	<path style="fill:url(#SVGID_00000127743082794100568740000001178070187235124920_);" d="M271.58,524.5l-19.01-59.31l-17.42-54.22
		H205.3v1.51l8.86,17.1l-13.63,43.04l-16.41,51.93l-13.45,14.4v1.56h33.56v-1.56l-15.13-14.66h-0.18l7.59-24.38h40.4l7.41,24.48
		l-11.86,14.55v1.56h51.11v-1.56L271.58,524.5z M198.02,495.03l7.28-23.29l11.51-36.91l0.26,0.36l0.22-0.1l10.01,33.11l8.07,26.82
		H198.02z"/>
	
		<radialGradient id="SVGID_00000064325009061666564790000009486336999462062483_" cx="546.0388" cy="368.3" r="54.1784" gradientTransform="matrix(2.7746 0 0 3.2702 -1227.2915 -733.4421)" gradientUnits="userSpaceOnUse">
		<stop  offset="0" style="stop-color:#FDB913"/>
		<stop  offset="1" style="stop-color:#F58220"/>
	</radialGradient>
	<path style="fill:url(#SVGID_00000064325009061666564790000009486336999462062483_);" d="M382.15,507.3l-21.83,28.43h-41.32
		l34.36-67.94l27.74-54.84c0-0.31,0-0.62-0.04-0.99c-0.09-0.36-0.09-0.68-0.09-0.99h-84.76l-3.53,33.11l0.75,0.1l21.87-28.43h36.25
		l-24.65,48.76l-37.44,74.02c0.04,0.36,0.13,0.68,0.22,1.04c0.04,0.31,0.09,0.62,0.09,0.94h89.66l3.53-33.21H382.15z"/>
	
		<radialGradient id="SVGID_00000090979785910452556850000007864022212428156043_" cx="546.0498" cy="368.3" r="54.1581" gradientTransform="matrix(2.7746 0 0 3.2702 -1227.2915 -733.4421)" gradientUnits="userSpaceOnUse">
		<stop  offset="0" style="stop-color:#FDB913"/>
		<stop  offset="1" style="stop-color:#F58220"/>
	</radialGradient>
	<path style="fill:url(#SVGID_00000090979785910452556850000007864022212428156043_);" d="M426.25,427.19l10.28-14.71v-1.51h-45.73
		v1.51l10.41,14.71v97.1l-10.41,14.66v1.56h45.73v-1.56l-10.28-14.66V427.19z"/>
	<g class="st11">
		
			<linearGradient id="SVGID_00000060024072311901998590000003310727979556904369_" gradientUnits="userSpaceOnUse" x1="142.4071" y1="490.4713" x2="142.4071" y2="424.4513">
			<stop  offset="0" style="stop-color:#FFFFFF"/>
			<stop  offset="1" style="stop-color:#F58220"/>
		</linearGradient>
		<path style="fill:url(#SVGID_00000060024072311901998590000003310727979556904369_);" d="M160.84,480.37v1.09
			c-10.41,2.65-20.38,5.41-29.81,8.26l-7.06-7.9v-1.45H160.84z"/>
		<g>
			
				<linearGradient id="SVGID_00000131367763581223242860000010925512596807559048_" gradientUnits="userSpaceOnUse" x1="108.4485" y1="490.4712" x2="108.4485" y2="424.4518">
				<stop  offset="0" style="stop-color:#FFFFFF"/>
				<stop  offset="1" style="stop-color:#F58220"/>
			</linearGradient>
			<path style="fill:url(#SVGID_00000131367763581223242860000010925512596807559048_);" d="M156.48,453.18h-1.59
				c-0.4-1.51-0.93-3.33-1.59-5.46c-0.66-2.13-1.5-4.37-2.51-6.76c-0.97-2.44-2.16-4.89-3.57-7.38c-1.41-2.55-3-4.94-4.81-7.28
				c-1.81-2.29-3.88-4.42-6.17-6.34c-2.25-1.92-4.85-3.48-7.67-4.68l-0.57-0.36c-1.63-0.47-3.18-0.78-4.67-0.99
				c-1.5-0.16-2.87-0.26-4.1-0.26c-5.65,0-10.5,1.61-14.51,4.83c-4.01,3.17-7.32,7.59-9.88,13.2c-2.56,5.61-4.45,12.27-5.64,19.91
				c-1.19,7.64-1.81,15.91-1.81,24.79c0,9.77,0.75,18.45,2.21,26.09c0.04,0.26,0.09,0.57,0.18,0.83
				c-8.16,2.96-15.48,5.77-21.83,8.32c-1.32-2.65-2.47-5.46-3.44-8.42c-2.73-8.11-4.06-17-4.06-26.72c0-9.67,1.32-18.66,4.01-26.87
				c2.65-8.26,6.53-15.39,11.51-21.42c5.03-6.03,11.16-10.76,18.39-14.14c7.23-3.43,15.39-5.09,24.52-5.09h1.06
				c5.78,0.1,11.51,0.83,17.16,2.18c5.6,1.35,11.38,3.17,17.29,5.46L156.48,453.18z"/>
			
				<linearGradient id="SVGID_00000098916801603611352550000013154317389945122486_" gradientUnits="userSpaceOnUse" x1="226.5538" y1="490.4713" x2="226.5538" y2="424.4517">
				<stop  offset="0" style="stop-color:#FFFFFF"/>
				<stop  offset="1" style="stop-color:#F58220"/>
			</linearGradient>
			<path style="fill:url(#SVGID_00000098916801603611352550000013154317389945122486_);" d="M252.57,465.19
				c-8.51,0.78-16.94,1.82-25.27,3.02l-10.01-33.11l-0.22,0.1l-0.26-0.36l-11.51,36.91c-1.59,0.31-3.18,0.57-4.76,0.88l13.63-43.04
				l-8.86-17.1v-1.51h29.86L252.57,465.19z"/>
			
				<linearGradient id="SVGID_00000014635372852584335550000000883334272190180241_" gradientUnits="userSpaceOnUse" x1="336.8752" y1="490.4714" x2="336.8752" y2="424.4519">
				<stop  offset="0" style="stop-color:#FFFFFF"/>
				<stop  offset="1" style="stop-color:#F58220"/>
			</linearGradient>
			<path style="fill:url(#SVGID_00000014635372852584335550000000883334272190180241_);" d="M381.09,412.95l-27.74,54.84
				c-8.73-1.51-17.6-2.6-26.46-3.27l24.65-48.76h-36.25l-21.87,28.43l-0.75-0.1l3.53-33.11h84.76c0,0.31,0,0.62,0.09,0.99
				C381.09,412.33,381.09,412.64,381.09,412.95z"/>
			
				<linearGradient id="SVGID_00000168109845872856861150000015037398745070690444_" gradientUnits="userSpaceOnUse" x1="413.6568" y1="490.4713" x2="413.6568" y2="424.4518">
				<stop  offset="0" style="stop-color:#FFFFFF"/>
				<stop  offset="1" style="stop-color:#F58220"/>
			</linearGradient>
			<path style="fill:url(#SVGID_00000168109845872856861150000015037398745070690444_);" d="M436.52,410.98v1.51l-10.28,14.71v63.42
				c-8.16-4.05-16.54-7.59-25.05-10.55v-52.86l-10.41-14.71v-1.51H436.52z"/>
		</g>
	</g>
	<g>
		<path class="st17" d="M71.56,561.11h6.7v73.07h-6.7V561.11z M74.91,624.43h27.34v9.75H74.91V624.43z"/>
		<path class="st17" d="M123.15,561.11h5.72l17.61,73.07h-7.23l-13.24-58.95l-13.24,58.95h-7.23L123.15,561.11z M113.65,608.4h25.14
			v9.75h-25.14V608.4z"/>
		<path class="st17" d="M153.71,561.11h6.67v73.07h-6.67V561.11z M157.65,624.68h12.95c3.39,0,5.87-0.99,7.43-2.97
			c1.56-1.97,2.33-4.75,2.33-8.34v-0.15c0-2.48-0.28-4.61-0.84-6.38c-0.56-1.78-1.44-3.14-2.64-4.1c-1.21-0.96-2.75-1.43-4.63-1.43
			h-14.59v-9.25h14.59c2.48,0,4.34-0.89,5.6-2.66c1.26-1.78,1.89-4.4,1.89-7.89c0-3.65-0.7-6.38-2.1-8.19
			c-1.4-1.81-3.51-2.71-6.31-2.71h-13.67v-9.5h14.88c3.09,0,5.67,0.8,7.75,2.41c2.08,1.61,3.64,3.89,4.67,6.84
			c1.03,2.95,1.54,6.47,1.54,10.55c0,2.51-0.32,4.87-0.95,7.06c-0.64,2.19-1.6,4.07-2.91,5.63s-2.92,2.6-4.85,3.14
			c1.93,0.44,3.59,1.48,5,3.14c1.4,1.66,2.47,3.73,3.22,6.21c0.74,2.48,1.12,5.16,1.12,8.04v0.15c0,3.95-0.57,7.44-1.71,10.45
			c-1.14,3.02-2.77,5.34-4.9,6.99c-2.13,1.64-4.6,2.46-7.43,2.46h-15.44V624.68z"/>
		<path class="st17" d="M204.15,631.59c-2.54-2.23-4.51-5.38-5.9-9.45c-1.39-4.07-2.09-8.79-2.09-14.15v-20.7
			c0-5.36,0.7-10.08,2.09-14.15c1.39-4.07,3.36-7.22,5.9-9.45c2.54-2.23,5.48-3.34,8.81-3.34c3.33,0,6.27,1.12,8.81,3.34
			c2.54,2.23,4.51,5.38,5.9,9.45c1.39,4.07,2.09,8.79,2.09,14.15v20.7c0,5.36-0.7,10.08-2.09,14.15c-1.39,4.07-3.36,7.22-5.9,9.45
			c-2.54,2.23-5.48,3.34-8.81,3.34C209.62,634.93,206.69,633.82,204.15,631.59z M218.16,622.8c1.5-1.36,2.66-3.28,3.48-5.78
			c0.82-2.5,1.23-5.39,1.23-8.67v-21.41c0-3.28-0.41-6.17-1.23-8.67c-0.82-2.5-1.98-4.42-3.48-5.78c-1.5-1.36-3.24-2.04-5.21-2.04
			c-1.97,0-3.71,0.68-5.21,2.04c-1.5,1.36-2.66,3.28-3.48,5.78c-0.82,2.5-1.23,5.39-1.23,8.67v21.41c0,3.28,0.41,6.17,1.23,8.67
			c0.82,2.5,1.98,4.42,3.48,5.78c1.5,1.36,3.24,2.03,5.21,2.03C214.92,624.83,216.66,624.15,218.16,622.8z"/>
		<path class="st17" d="M240.59,561.05h6.7v73.12h-6.7V561.05z M243.51,593.52h16.3c1.27,0,2.4-0.47,3.38-1.41s1.75-2.27,2.28-4
			c0.54-1.73,0.8-3.71,0.8-5.96c0-2.24-0.27-4.23-0.8-5.96c-0.54-1.73-1.29-3.06-2.27-4c-0.98-0.94-2.11-1.41-3.4-1.41h-16.3v-9.75
			h16.03c2.76,0,5.19,0.87,7.28,2.61c2.09,1.74,3.71,4.21,4.86,7.41c1.15,3.2,1.73,6.89,1.73,11.08c0,4.19-0.58,7.88-1.74,11.08
			c-1.16,3.2-2.79,5.67-4.88,7.41c-2.09,1.74-4.51,2.61-7.25,2.61h-16.03V593.52z M256.52,601.01l6.67-2.31l12.22,35.48h-7.95
			L256.52,601.01z"/>
		<path class="st17" d="M296.15,561.11h5.72l17.61,73.07h-7.23l-13.24-58.95l-13.24,58.95h-7.23L296.15,561.11z M286.65,608.4h25.14
			v9.75h-25.14V608.4z"/>
		<path class="st17" d="M318.82,561.11h33.71v9.75h-33.71V561.11z M332.33,567.09h6.7v67.09h-6.7V567.09z"/>
		<path class="st17" d="M364.79,631.59c-2.54-2.23-4.51-5.38-5.9-9.45c-1.39-4.07-2.09-8.79-2.09-14.15v-20.7
			c0-5.36,0.7-10.08,2.09-14.15c1.39-4.07,3.36-7.22,5.9-9.45c2.54-2.23,5.48-3.34,8.81-3.34c3.33,0,6.27,1.12,8.81,3.34
			c2.54,2.23,4.51,5.38,5.9,9.45c1.39,4.07,2.09,8.79,2.09,14.15v20.7c0,5.36-0.7,10.08-2.09,14.15c-1.39,4.07-3.36,7.22-5.9,9.45
			c-2.54,2.23-5.48,3.34-8.81,3.34C370.27,634.93,367.33,633.82,364.79,631.59z M378.81,622.8c1.5-1.36,2.66-3.28,3.48-5.78
			c0.82-2.5,1.23-5.39,1.23-8.67v-21.41c0-3.28-0.41-6.17-1.23-8.67c-0.82-2.5-1.98-4.42-3.48-5.78c-1.5-1.36-3.24-2.04-5.21-2.04
			s-3.71,0.68-5.21,2.04c-1.5,1.36-2.66,3.28-3.48,5.78c-0.82,2.5-1.23,5.39-1.23,8.67v21.41c0,3.28,0.41,6.17,1.23,8.67
			c0.82,2.5,1.98,4.42,3.48,5.78c1.5,1.36,3.24,2.03,5.21,2.03S377.3,624.15,378.81,622.8z"/>
		<path class="st17" d="M401.23,561.05h6.7v73.12h-6.7V561.05z M404.16,593.52h16.3c1.27,0,2.4-0.47,3.38-1.41
			c0.99-0.94,1.75-2.27,2.28-4c0.54-1.73,0.8-3.71,0.8-5.96c0-2.24-0.27-4.23-0.8-5.96c-0.54-1.73-1.29-3.06-2.27-4
			c-0.98-0.94-2.11-1.41-3.4-1.41h-16.3v-9.75h16.03c2.76,0,5.19,0.87,7.28,2.61c2.09,1.74,3.71,4.21,4.86,7.41
			c1.15,3.2,1.72,6.89,1.72,11.08c0,4.19-0.58,7.88-1.74,11.08c-1.16,3.2-2.79,5.67-4.88,7.41c-2.09,1.74-4.51,2.61-7.25,2.61
			h-16.03V593.52z M417.17,601.01l6.67-2.31l12.23,35.48h-7.95L417.17,601.01z"/>
		<path class="st17" d="M451.8,634.18h-6.7v-73.07h6.7V634.18z"/>
		<path class="st17" d="M463.63,561.11h6.7v73.07h-6.7V561.11z M466.88,561.11h27.44v9.75h-27.44V561.11z M466.88,593.02h23.82v9.75
			h-23.82V593.02z M466.88,624.43h27.44v9.75h-27.44V624.43z"/>
		<path class="st17" d="M514.75,634.93c0,0-1.03-0.34-3.09-1c-2.06-0.67-3.98-1.68-5.77-3.02c-1.79-1.34-3.45-3.02-5.01-5.03
			l4.17-7.84c1.82,2.41,3.82,4.22,6.01,5.43c2.19,1.21,4.57,1.81,7.13,1.81c3.46,0,6.14-0.98,8.05-2.94
			c1.9-1.96,2.86-4.73,2.86-8.32v-0.05c0-2.54-0.43-4.56-1.3-6.06c-0.87-1.49-1.98-2.6-3.35-3.32c-1.37-0.72-3.14-1.38-5.31-1.99
			c-0.07-0.03-0.14-0.05-0.21-0.05c-0.08,0-0.15-0.02-0.21-0.05l-0.49-0.15c-3.2-0.84-5.8-1.78-7.81-2.84
			c-2-1.05-3.72-2.98-5.14-5.78c-1.42-2.8-2.14-6.78-2.14-11.94v-0.05c0-4.53,0.66-8.38,1.99-11.58c1.32-3.2,3.26-5.64,5.8-7.31
			c2.54-1.68,5.6-2.51,9.17-2.51c1.71,0,3.39,0.29,5.04,0.86c1.65,0.57,3.29,1.42,4.9,2.54c1.61,1.12,3.19,2.54,4.75,4.25
			l-3.81,8.14c-1.82-2.04-3.63-3.58-5.44-4.6c-1.81-1.02-3.62-1.53-5.44-1.53c-3.26,0-5.8,1-7.61,2.99
			c-1.81,1.99-2.71,4.82-2.71,8.47v0.05c0,2.51,0.47,4.49,1.4,5.93c0.93,1.44,2.09,2.51,3.48,3.19c1.39,0.69,3.32,1.4,5.8,2.14
			c0.09,0.03,0.17,0.06,0.25,0.08c0.08,0.02,0.16,0.04,0.25,0.07c0.11,0.04,0.23,0.07,0.36,0.1c0.13,0.03,0.25,0.07,0.36,0.1
			c2.89,0.9,5.31,1.98,7.25,3.21c1.94,1.24,3.56,3.24,4.86,6.01c1.3,2.76,1.96,6.54,1.96,11.33v0.1c0,4.46-0.69,8.27-2.07,11.43
			c-1.38,3.17-3.38,5.58-6,7.24c-2.62,1.66-5.78,2.49-9.48,2.49C515.91,634.93,514.75,634.93,514.75,634.93z"/>
	</g>
</g>
</svg>
